<svg xmlns="http://www.w3.org/2000/svg" viewBox="0 0 200 200" width="200" height="200">
  <!-- NATS Logo -->
  <rect width="200" height="200" fill="#27AAE1" rx="20" ry="20"/>
  <g fill="#FFFFFF">
    <!-- N -->
    <path d="M40,50 L40,150 L60,150 L60,80 L100,150 L120,150 L120,50 L100,50 L100,120 L60,50 Z"/>
    <!-- A -->
    <path d="M130,50 L150,150 L170,150 L190,50 L170,50 L160,110 L150,50 Z"/>
    <!-- T -->
    <path d="M10,50 L10,70 L20,70 L20,150 L40,150 L40,70 L50,70 L50,50 Z"/>
    <!-- S -->
    <path d="M180,90 C180,70 160,70 160,70 L140,70 L140,90 L160,90 C160,90 165,90 165,95 C165,100 160,100 160,100 L140,100 L140,120 L160,120 C160,120 180,120 180,100 Z"/>
  </g>
</svg> 